<svg width="40" height="34" viewBox="0 0 40 34" fill="none" xmlns="http://www.w3.org/2000/svg">
<path d="M30 0H10C4 0 0 3 0 10V24C0 31 4 34 10 34H30C36 34 40 31 40 24V10C40 3 36 0 30 0ZM30.94 12.18L24.68 17.18C23.36 18.24 21.68 18.76 20 18.76C18.32 18.76 16.62 18.24 15.32 17.18L9.06 12.18C8.75401 11.926 8.55814 11.5635 8.5134 11.1683C8.46867 10.7731 8.57853 10.376 8.82 10.06C9.34 9.42 10.28 9.3 10.92 9.82L17.18 14.82C18.7 16.04 21.28 16.04 22.8 14.82L29.06 9.82C29.7 9.3 30.66 9.4 31.16 10.06C31.68 10.7 31.58 11.66 30.94 12.18Z" fill="white"/>
</svg>
