<svg width="36" height="42" viewBox="0 0 36 42" fill="none" xmlns="http://www.w3.org/2000/svg">
<path d="M35.242 13.9C33.142 4.66 25.082 0.5 18.002 0.5H17.982C10.922 0.5 2.84199 4.64 0.741991 13.88C-1.59801 24.2 4.72199 32.94 10.442 38.44C12.4694 40.4024 15.1804 41.4997 18.002 41.5C20.722 41.5 23.442 40.48 25.542 38.44C31.262 32.94 37.582 24.22 35.242 13.9ZM18.002 23.92C17.1747 23.92 16.3554 23.757 15.5911 23.4404C14.8267 23.1238 14.1322 22.6598 13.5472 22.0748C12.9622 21.4898 12.4982 20.7953 12.1816 20.0309C11.8649 19.2666 11.702 18.4473 11.702 17.62C11.702 16.7927 11.8649 15.9734 12.1816 15.2091C12.4982 14.4447 12.9622 13.7502 13.5472 13.1652C14.1322 12.5802 14.8267 12.1162 15.5911 11.7996C16.3554 11.483 17.1747 11.32 18.002 11.32C19.6729 11.32 21.2753 11.9837 22.4568 13.1652C23.6382 14.3467 24.302 15.9491 24.302 17.62C24.302 19.2909 23.6382 20.8933 22.4568 22.0748C21.2753 23.2563 19.6729 23.92 18.002 23.92Z" fill="white"/>
</svg>
