<svg width="40" height="40" viewBox="0 0 40 40" fill="none" xmlns="http://www.w3.org/2000/svg">
<path d="M39.94 32.66C39.94 33.38 39.78 34.12 39.44 34.84C39.1 35.56 38.66 36.24 38.08 36.88C37.1 37.96 36.02 38.74 34.8 39.24C33.6 39.74 32.3 40 30.9 40C28.86 40 26.68 39.52 24.38 38.54C22.08 37.56 19.78 36.24 17.5 34.58C15.1762 32.8802 12.9834 31.0083 10.94 28.98C8.91754 26.944 7.0522 24.7578 5.36 22.44C3.72 20.16 2.4 17.88 1.44 15.62C0.48 13.34 0 11.16 0 9.08C0 7.72 0.24 6.42 0.72 5.22C1.2 4 1.96 2.88 3.02 1.88C4.3 0.62 5.7 0 7.18 0C7.74 0 8.3 0.12 8.8 0.36C9.32 0.6 9.78 0.96 10.14 1.48L14.78 8.02C15.14 8.52 15.4 8.98 15.58 9.42C15.76 9.84 15.86 10.26 15.86 10.64C15.86 11.12 15.72 11.6 15.44 12.06C15.18 12.52 14.8 13 14.32 13.48L12.8 15.06C12.58 15.28 12.48 15.54 12.48 15.86C12.48 16.02 12.5 16.16 12.54 16.32C12.6 16.48 12.66 16.6 12.7 16.72C13.06 17.38 13.68 18.24 14.56 19.28C15.46 20.32 16.42 21.38 17.46 22.44C18.54 23.5 19.58 24.48 20.64 25.38C21.68 26.26 22.54 26.86 23.22 27.22C23.32 27.26 23.44 27.32 23.58 27.38C23.74 27.44 23.9 27.46 24.08 27.46C24.42 27.46 24.68 27.34 24.9 27.12L26.42 25.62C26.92 25.12 27.4 24.74 27.86 24.5C28.32 24.22 28.78 24.08 29.28 24.08C29.66 24.08 30.06 24.16 30.5 24.34C30.94 24.52 31.4 24.78 31.9 25.12L38.52 29.82C39.04 30.18 39.4 30.6 39.62 31.1C39.82 31.6 39.94 32.1 39.94 32.66Z" fill="white"/>
</svg>
